# xmcd
#
# Track frame offsets:
#	150
#	14654
#	28569
#	43220
#	58016
#	70401
#	83683
#	97960
#	112198
#	126205
#	140339
#	154189
#	168208
#	182399
#
# Disc length: 2680 seconds
#
# Revision: 0
# Processed by: cddbd v1.5.2PL0 Copyright (c) Steve Scherf et al.
# Submitted via: EasyCDDAExtractor 2010.6.0.0
#
DISCID=ba0a760e
DTITLE=Jorge and Mateus - AIJÁERA
DYEAR=1900
DGENRE=
TTITLE0=Seu astral
TTITLE1=Amo noite e dia
TTITLE2=chove chove
TTITLE3=tempo ao tempo
TTITLE4=se eu chorar
TTITLE5=esquece o medo e vem
TTITLE6=volta pra minha vida
TTITLE7=cilada
TTITLE8=refem
TTITLE9=1000 anos
TTITLE10=Alguem no seu lugar
TTITLE11=Para ter o seu amor
TTITLE12=Vestigios
TTITLE13=Ai já era
EXTD=
EXTT0=
EXTT1=
EXTT2=
EXTT3=
EXTT4=
EXTT5=
EXTT6=
EXTT7=
EXTT8=
EXTT9=
EXTT10=
EXTT11=
EXTT12=
EXTT13=
PLAYORDER=
